<svg width="26" height="22" viewBox="0 0 26 22" fill="none" xmlns="http://www.w3.org/2000/svg">
<path d="M13.0739 6.3102C12.4337 6.3102 11.8223 6.43706 11.2396 6.69078C10.6569 6.9445 10.1563 7.28006 9.73769 7.69748C9.31913 8.11489 8.98264 8.61414 8.72822 9.19524C8.4738 9.77634 8.34659 10.3861 8.34659 11.0245C8.34659 11.6629 8.4738 12.2767 8.72822 12.866C8.98264 13.4553 9.31913 13.9586 9.73769 14.376C10.1563 14.7935 10.6569 15.1249 11.2396 15.3705C11.8223 15.616 12.4337 15.7388 13.0739 15.7388C13.9438 15.7388 14.7399 15.5301 15.4621 15.1127C16.1843 14.6952 16.7547 14.1264 17.1733 13.4062C17.5919 12.6859 17.8011 11.892 17.8011 11.0245C17.8011 9.73133 17.3415 8.62233 16.4223 7.69748C15.5032 6.77262 14.387 6.3102 13.0739 6.3102ZM13.0739 14.1673C12.5158 14.1673 11.9905 14.0241 11.4981 13.7377C11.0057 13.4512 10.6158 13.0665 10.3286 12.5836C10.0414 12.1007 9.89773 11.5728 9.89773 10.9999C9.89773 10.5743 9.9798 10.1692 10.1439 9.78453C10.3081 9.39986 10.5338 9.06429 10.821 8.77783C11.1083 8.49137 11.4448 8.2663 11.8305 8.10261C12.2162 7.93892 12.6225 7.85707 13.0492 7.85707C13.9192 7.85707 14.6619 8.16399 15.2775 8.77783C15.893 9.39167 16.2008 10.1324 16.2008 10.9999C16.2008 11.8675 15.8971 12.6123 15.2898 13.2343C14.6825 13.8563 13.9438 14.1673 13.0739 14.1673ZM25.6061 10.8281C25.6061 10.8117 25.602 10.7912 25.5938 10.7667C25.5855 10.7421 25.5814 10.7217 25.5814 10.7053C25.5814 10.6889 25.5773 10.6766 25.5691 10.6685L25.5568 10.6562V10.6316L25.5322 10.5825C24.416 8.01258 22.7254 5.99509 20.4602 4.53006C18.1951 3.06503 15.7247 2.33252 13.0492 2.33252C11.2929 2.33252 9.60227 2.65172 7.97727 3.29011C6.35227 3.9285 4.87911 4.87381 3.55777 6.12605C2.23643 7.37828 1.19823 8.86377 0.443184 10.5825V10.6439L0.418562 10.6807V10.7544L0.393941 10.8035C0.377527 10.9017 0.36932 10.9754 0.36932 11.0245C0.36932 11.0572 0.373423 11.09 0.381631 11.1227C0.389838 11.1554 0.393941 11.1882 0.393941 11.2209C0.393941 11.2373 0.402148 11.2618 0.418562 11.2946V11.3437L0.430873 11.3805L0.443184 11.3928V11.4664C1.57576 14.0364 3.27873 16.0457 5.55209 17.4944C7.82544 18.943 10.3081 19.6673 13 19.6673C14.7563 19.6673 16.4429 19.3522 18.0597 18.722C19.6765 18.0918 21.1414 17.1547 22.4545 15.9106C23.7677 14.6666 24.7936 13.1852 25.5322 11.4664C25.5486 11.4664 25.5568 11.4583 25.5568 11.4419V11.4051L25.5691 11.3805L25.5814 11.3682V11.2946L25.6061 11.2455C25.6225 11.1473 25.6307 11.0736 25.6307 11.0245C25.6307 10.9917 25.6266 10.959 25.6184 10.9263C25.6102 10.8935 25.6061 10.8608 25.6061 10.8281ZM13 18.0959C10.6692 18.0959 8.51073 17.4862 6.52462 16.2667C4.53851 15.0472 3.02841 13.2998 1.99432 11.0245C3.02841 8.74919 4.54672 6.99361 6.54924 5.75774C8.55177 4.52188 10.7184 3.90395 13.0492 3.90395C14.5593 3.90395 16.0079 4.16585 17.3949 4.68966C18.7819 5.21347 20.0581 6.01965 21.2235 7.10819C22.3889 8.19673 23.3163 9.50216 24.0057 11.0245C22.9716 13.2998 21.4615 15.0472 19.4754 16.2667C17.4893 17.4862 15.3308 18.0959 13 18.0959Z" fill="white"/>
</svg>
