<svg width="24" height="24" viewBox="0 0 24 24" fill="none" xmlns="http://www.w3.org/2000/svg">
<path d="M22.0575 6.94515C21.938 6.50118 21.704 6.09638 21.3789 5.77127C21.0537 5.44616 20.649 5.21215 20.205 5.09265C18.57 4.65015 12 4.65015 12 4.65015C12 4.65015 5.42998 4.65015 3.79498 5.09265C3.35101 5.21215 2.94622 5.44616 2.62111 5.77127C2.296 6.09638 2.06199 6.50118 1.94248 6.94515C1.63719 8.6126 1.48904 10.305 1.49998 12.0001C1.48904 13.6953 1.63719 15.3877 1.94248 17.0551C2.06199 17.4991 2.296 17.9039 2.62111 18.229C2.94622 18.5541 3.35101 18.7881 3.79498 18.9076C5.42998 19.3501 12 19.3501 12 19.3501C12 19.3501 18.57 19.3501 20.205 18.9076C20.649 18.7881 21.0537 18.5541 21.3789 18.229C21.704 17.9039 21.938 17.4991 22.0575 17.0551C22.3628 15.3877 22.5109 13.6953 22.5 12.0001C22.5109 10.305 22.3628 8.6126 22.0575 6.94515ZM9.89998 15.1501V8.85015L15.3525 12.0001L9.89998 15.1501Z" fill="#4FBFA5"/>
</svg>
